<svg xmlns="http://www.w3.org/2000/svg" width="492" height="598" font-family="-apple-system,Segoe UI,Roboto,sans-serif">
<rect width="100%" height="100%" fill="#0e1116"/>
<text x="30" y="38" font-size="22" fill="#f0b429">♞ Chess World Cup — Broadcast</text>
<text x="30" y="60" font-size="13" fill="#8b97a7">measuring the language tax · Fixed-Node Match · game #22 · checkmate</text>
<rect x="30" y="74" width="432" height="18" fill="#171b22" rx="4"/>
<text x="38" y="87" font-size="12" fill="#e6edf3">🇧🇷 py-mcts (black)  ·  Python</text>
<rect x="30" y="96" width="54" height="54" fill="#ebd9b4"/><text x="57.0" y="134.88" font-size="38" text-anchor="middle" fill="#1a1a1a">♜</text><rect x="84" y="96" width="54" height="54" fill="#6f8399"/><text x="111.0" y="134.88" font-size="38" text-anchor="middle" fill="#1a1a1a">♞</text><rect x="138" y="96" width="54" height="54" fill="#ebd9b4"/><rect x="138" y="96" width="54" height="54" fill="#f0b429" opacity="0.42"/><text x="165.0" y="134.88" font-size="38" text-anchor="middle" fill="#ffffff">♕</text><rect x="192" y="96" width="54" height="54" fill="#6f8399"/><rect x="246" y="96" width="54" height="54" fill="#ebd9b4"/><text x="273.0" y="134.88" font-size="38" text-anchor="middle" fill="#1a1a1a">♚</text><rect x="300" y="96" width="54" height="54" fill="#6f8399"/><text x="327.0" y="134.88" font-size="38" text-anchor="middle" fill="#1a1a1a">♝</text><rect x="354" y="96" width="54" height="54" fill="#ebd9b4"/><rect x="408" y="96" width="54" height="54" fill="#6f8399"/><text x="435.0" y="134.88" font-size="38" text-anchor="middle" fill="#1a1a1a">♜</text><rect x="30" y="150" width="54" height="54" fill="#6f8399"/><text x="57.0" y="188.88" font-size="38" text-anchor="middle" fill="#1a1a1a">♟</text><rect x="84" y="150" width="54" height="54" fill="#ebd9b4"/><text x="111.0" y="188.88" font-size="38" text-anchor="middle" fill="#1a1a1a">♟</text><rect x="138" y="150" width="54" height="54" fill="#6f8399"/><text x="165.0" y="188.88" font-size="38" text-anchor="middle" fill="#1a1a1a">♟</text><rect x="192" y="150" width="54" height="54" fill="#ebd9b4"/><rect x="246" y="150" width="54" height="54" fill="#6f8399"/><text x="273.0" y="188.88" font-size="38" text-anchor="middle" fill="#1a1a1a">♟</text><rect x="300" y="150" width="54" height="54" fill="#ebd9b4"/><text x="327.0" y="188.88" font-size="38" text-anchor="middle" fill="#1a1a1a">♟</text><rect x="354" y="150" width="54" height="54" fill="#6f8399"/><text x="381.0" y="188.88" font-size="38" text-anchor="middle" fill="#1a1a1a">♟</text><rect x="408" y="150" width="54" height="54" fill="#ebd9b4"/><text x="435.0" y="188.88" font-size="38" text-anchor="middle" fill="#1a1a1a">♟</text><rect x="30" y="204" width="54" height="54" fill="#ebd9b4"/><rect x="84" y="204" width="54" height="54" fill="#6f8399"/><rect x="138" y="204" width="54" height="54" fill="#ebd9b4"/><rect x="192" y="204" width="54" height="54" fill="#6f8399"/><rect x="246" y="204" width="54" height="54" fill="#ebd9b4"/><rect x="300" y="204" width="54" height="54" fill="#6f8399"/><rect x="354" y="204" width="54" height="54" fill="#ebd9b4"/><rect x="408" y="204" width="54" height="54" fill="#6f8399"/><text x="435.0" y="242.88" font-size="38" text-anchor="middle" fill="#1a1a1a">♞</text><rect x="30" y="258" width="54" height="54" fill="#6f8399"/><rect x="84" y="258" width="54" height="54" fill="#ebd9b4"/><rect x="138" y="258" width="54" height="54" fill="#6f8399"/><rect x="192" y="258" width="54" height="54" fill="#ebd9b4"/><rect x="246" y="258" width="54" height="54" fill="#6f8399"/><rect x="300" y="258" width="54" height="54" fill="#ebd9b4"/><rect x="354" y="258" width="54" height="54" fill="#6f8399"/><rect x="408" y="258" width="54" height="54" fill="#ebd9b4"/><rect x="30" y="312" width="54" height="54" fill="#ebd9b4"/><rect x="84" y="312" width="54" height="54" fill="#6f8399"/><rect x="138" y="312" width="54" height="54" fill="#ebd9b4"/><rect x="192" y="312" width="54" height="54" fill="#6f8399"/><rect x="246" y="312" width="54" height="54" fill="#ebd9b4"/><rect x="300" y="312" width="54" height="54" fill="#6f8399"/><rect x="354" y="312" width="54" height="54" fill="#ebd9b4"/><rect x="354" y="312" width="54" height="54" fill="#f0b429" opacity="0.42"/><rect x="408" y="312" width="54" height="54" fill="#6f8399"/><rect x="30" y="366" width="54" height="54" fill="#6f8399"/><rect x="84" y="366" width="54" height="54" fill="#ebd9b4"/><rect x="138" y="366" width="54" height="54" fill="#6f8399"/><text x="165.0" y="404.88" font-size="38" text-anchor="middle" fill="#ffffff">♘</text><rect x="192" y="366" width="54" height="54" fill="#ebd9b4"/><rect x="246" y="366" width="54" height="54" fill="#6f8399"/><rect x="300" y="366" width="54" height="54" fill="#ebd9b4"/><rect x="354" y="366" width="54" height="54" fill="#6f8399"/><rect x="408" y="366" width="54" height="54" fill="#ebd9b4"/><rect x="30" y="420" width="54" height="54" fill="#ebd9b4"/><text x="57.0" y="458.88" font-size="38" text-anchor="middle" fill="#ffffff">♙</text><rect x="84" y="420" width="54" height="54" fill="#6f8399"/><text x="111.0" y="458.88" font-size="38" text-anchor="middle" fill="#ffffff">♙</text><rect x="138" y="420" width="54" height="54" fill="#ebd9b4"/><text x="165.0" y="458.88" font-size="38" text-anchor="middle" fill="#ffffff">♙</text><rect x="192" y="420" width="54" height="54" fill="#6f8399"/><text x="219.0" y="458.88" font-size="38" text-anchor="middle" fill="#ffffff">♙</text><rect x="246" y="420" width="54" height="54" fill="#ebd9b4"/><rect x="300" y="420" width="54" height="54" fill="#6f8399"/><text x="327.0" y="458.88" font-size="38" text-anchor="middle" fill="#ffffff">♙</text><rect x="354" y="420" width="54" height="54" fill="#ebd9b4"/><text x="381.0" y="458.88" font-size="38" text-anchor="middle" fill="#ffffff">♗</text><rect x="408" y="420" width="54" height="54" fill="#6f8399"/><text x="435.0" y="458.88" font-size="38" text-anchor="middle" fill="#ffffff">♙</text><rect x="30" y="474" width="54" height="54" fill="#6f8399"/><text x="57.0" y="512.88" font-size="38" text-anchor="middle" fill="#ffffff">♖</text><rect x="84" y="474" width="54" height="54" fill="#ebd9b4"/><rect x="138" y="474" width="54" height="54" fill="#6f8399"/><text x="165.0" y="512.88" font-size="38" text-anchor="middle" fill="#ffffff">♗</text><rect x="192" y="474" width="54" height="54" fill="#ebd9b4"/><rect x="246" y="474" width="54" height="54" fill="#6f8399"/><text x="273.0" y="512.88" font-size="38" text-anchor="middle" fill="#ffffff">♔</text><rect x="300" y="474" width="54" height="54" fill="#ebd9b4"/><rect x="354" y="474" width="54" height="54" fill="#6f8399"/><text x="381.0" y="512.88" font-size="38" text-anchor="middle" fill="#ffffff">♘</text><rect x="408" y="474" width="54" height="54" fill="#ebd9b4"/><text x="435.0" y="512.88" font-size="38" text-anchor="middle" fill="#ffffff">♖</text>
<rect x="30" y="534" width="432" height="18" fill="#171b22" rx="4"/>
<text x="38" y="547" font-size="12" fill="#e6edf3">🇩🇪 cpp-alphabeta (white)  ·  C++  ·  1-0</text>
</svg>